# xmcd CD database file
#
# Track frame offsets:
#	150
#	6830
#	8446
#	9907
#	11162
#	12500
#	14218
#	16956
#	18465
#	20289
#	22353
#	24188
#	26129
#	27872
#	29625
#	31884
#	34318
#	36597
#	38381
#	40850
#	43369
#	46030
#	48681
#	51199
#	53741
#	56163
#	57918
#	59315
#	60606
#	61867
#	63554
#	64909
#	66350
#	67745
#	69018
#	70288
#	72262
#	74174
#	76125
#	81147
#	85909
#	90698
#	93695
#	95221
#	96570
#	97791
#	99911
#	101915
#	103968
#
# Disc length: 1426 seconds
#
# Revision: 0
# Processed by: cddbd v1.5.2PL0 Copyright (c) Steve Scherf et al.
# Submitted via: CDex 1.70beta2
#
DISCID=a8059031
DTITLE=Pat Cloud - Key To 5 String Banjo
DYEAR=1999
DGENRE=Jazz
TTITLE0=Welcome/Tuning
TTITLE1=Position 1
TTITLE2=Position 2
TTITLE3=Position 3
TTITLE4=Position 4
TTITLE5=Position 5
TTITLE6=Exercise 1
TTITLE7=Exercise 2
TTITLE8=Exercise 3
TTITLE9=Exercise 4
TTITLE10=Exercise 5
TTITLE11=Exercise 6
TTITLE12=Exercise 7
TTITLE13=Exercise 8
TTITLE14=Exercise 9
TTITLE15=Exercise 10
TTITLE16=Exercise 11
TTITLE17=Exercise 12
TTITLE18=Exercise 13
TTITLE19=Exercise 14
TTITLE20=Position 1
TTITLE21=Position 2
TTITLE22=Position 3
TTITLE23=Position 4
TTITLE24=Position 5
TTITLE25=Exercises G-C-D Pos. 1
TTITLE26=Position 2
TTITLE27=Position 3
TTITLE28=Position 4
TTITLE29=Position 5
TTITLE30=Open Fingersing Exercise 1
TTITLE31=Exercise 2
TTITLE32=Exercise 3
TTITLE33=Exercise 4
TTITLE34=Exercise 5
TTITLE35=Full Range Arpeggios G/Em
TTITLE36=C/Am
TTITLE37=D/Bm
TTITLE38=Sally Johnson
TTITLE39=Melodic Fingering
TTITLE40=Embellished Version
TTITLE41=D7 Ex./G7 Ex./C7 Ex.
TTITLE42=Full rnage Fingerings G7
TTITLE43=Full Range Fingerings C7
TTITLE44=Full range Fingerings D7
TTITLE45=One Fret Blues Exercise 1
TTITLE46=Exercise 2
TTITLE47=Exercise 3
TTITLE48=Exercise 4
EXTD=YEAR: 1999
EXTT0=
EXTT1=
EXTT2=
EXTT3=
EXTT4=
EXTT5=
EXTT6=
EXTT7=
EXTT8=
EXTT9=
EXTT10=
EXTT11=
EXTT12=
EXTT13=
EXTT14=
EXTT15=
EXTT16=
EXTT17=
EXTT18=
EXTT19=
EXTT20=
EXTT21=
EXTT22=
EXTT23=
EXTT24=
EXTT25=
EXTT26=
EXTT27=
EXTT28=
EXTT29=
EXTT30=
EXTT31=
EXTT32=
EXTT33=
EXTT34=
EXTT35=
EXTT36=
EXTT37=
EXTT38=
EXTT39=
EXTT40=
EXTT41=
EXTT42=
EXTT43=
EXTT44=
EXTT45=
EXTT46=
EXTT47=
EXTT48=
PLAYORDER=
